<svg width="16" height="17" viewBox="0 0 16 17" fill="none" xmlns="http://www.w3.org/2000/svg">
<path d="M3.58143 16.8983H0.264286V6.21777H3.58143V16.8983ZM1.92107 4.76084C0.860357 4.76084 0 3.8824 0 2.82185C7.59214e-09 2.31242 0.202398 1.82386 0.562669 1.46365C0.92294 1.10343 1.41157 0.901062 1.92107 0.901062C2.43057 0.901062 2.9192 1.10343 3.27947 1.46365C3.63974 1.82386 3.84214 2.31242 3.84214 2.82185C3.84214 3.8824 2.98143 4.76084 1.92107 4.76084ZM15.9964 16.8983H12.6864V11.6991C12.6864 10.46 12.6614 8.87094 10.9618 8.87094C9.23714 8.87094 8.97286 10.2172 8.97286 11.6098V16.8983H5.65929V6.21777H8.84071V7.67469H8.88714C9.33 6.83553 10.4118 5.94995 12.0257 5.94995C15.3829 5.94995 16 8.16034 16 11.0313V16.8983H15.9964Z" fill="black"/>
</svg>
